<?xml version="1.0" encoding="utf-8"?>
<!-- Generator: Adobe Illustrator 27.5.0, SVG Export Plug-In . SVG Version: 6.00 Build 0)  -->
<svg version="1.1" xmlns="http://www.w3.org/2000/svg" xmlns:xlink="http://www.w3.org/1999/xlink" x="0px" y="0px"
	 viewBox="0 0 3710 3710" style="enable-background:new 0 0 3710 3710;" xml:space="preserve">
<g id="Background">
	<g>
		<g>
			<rect style="fill:#FFFFFF;" width="3710" height="3710"/>
		</g>
	</g>
</g>
<g id="Illustration">
	<g>
		<linearGradient id="SVGID_1_" gradientUnits="userSpaceOnUse" x1="3450.7119" y1="3246.4375" x2="1402.4619" y2="1454.22">
			<stop  offset="0" style="stop-color:#DAE3FE"/>
			<stop  offset="1" style="stop-color:#E9EFFD"/>
		</linearGradient>
		<path style="fill:url(#SVGID_1_);" d="M3102.616,2315.659c-264.717,623.301-969.86,972.478-1581.361,878.289
			c-99.503-15.327-372.295-60.982-613.815-276.367C442.498,2502.947,343.067,1681.92,718.121,1103.322
			c272.974-421.118,762.307-659.835,1227.269-647.894c100.153,2.572,483.981,18.424,821.298,296.569
			c49.545,40.854,158.823,137.935,257.308,291.946C3255.257,1405.591,3275.135,1909.446,3102.616,2315.659z"/>
		<g>
			<path style="fill:#91B3FA;" d="M621.949,469.987c-2.609-11.104,13.012-18.486,22.577-10.729
				c97.131,78.763,330.508,314.625,272.346,726.809c-72.973,517.147,51.783,705.849,207.074,820.954
				c0,0-213.265-54.13-347.442-245.609C447.069,1291.288,668.331,667.428,621.949,469.987z"/>
			<path style="fill:#BDD0FB;" d="M695.867,631.513c12.151,57.571,22.981,115.319,31.35,173.326
				c8.72,57.958,15.403,116.119,19.975,174.376c4.314,58.267,7.361,116.595,7.534,174.948c0.477,58.35-1.949,116.651-4.622,175.18
				c-2.293,58.508-4.988,117.437-0.704,176.785c4.212,59.226,16.679,118.97,41.418,174.975
				c6.184,13.958,12.687,27.873,20.075,41.318c7.102,13.569,14.902,26.871,22.975,40.046c16.301,26.287,34.65,51.686,55.097,75.792
				c41.044,48.131,90.545,90.828,145.076,126.963c5.74,3.803,13.963,2.868,18.368-2.088c4.325-4.866,3.359-11.801-2.112-15.651
				l-0.039-0.027c-12.975-9.113-25.814-18.343-38.132-28.036c-6.25-4.762-12.242-9.754-18.34-14.646
				c-5.876-5.085-11.983-9.976-17.671-15.213c-23.155-20.609-44.607-42.598-64.069-65.848
				c-39.147-46.283-70.486-97.857-94.229-151.324c-11.525-26.858-20.739-54.401-27.465-82.462
				c-6.703-28.068-10.918-56.624-13.25-85.41c-4.669-57.603-2.56-115.95-0.755-174.468c1.718-58.534,2.979-117.364,1.434-176.147
				c-0.68-29.39-1.972-58.766-3.873-88.107c-0.852-14.675-2.034-29.332-3.184-43.989c-1.313-14.648-2.721-29.287-4.265-43.914
				c-6.305-58.499-14.675-116.804-25.165-174.798c-10.812-57.951-23.402-115.635-38.544-172.802
				c-0.433-1.635-2.317-2.656-4.209-2.282C696.703,628.374,695.536,629.928,695.867,631.513z"/>
		</g>
		<g>
			<g>
				<path style="fill:#BDD0FB;" d="M821.787,1624.824c-11.909,12.636-32.853,9.002-40.017-6.815
					c-39.532-87.273-128.987-344.132,18.753-640.048C925.282,728.074,969.185,580.719,984.48,512.444
					c3.234-14.437,23.02-16.354,28.992-2.818C1079.36,658.97,1253.334,1166.956,821.787,1624.824z"/>
				
					<linearGradient id="SVGID_00000181052338882582680910000010855204962838102966_" gradientUnits="userSpaceOnUse" x1="792.1731" y1="1218.3967" x2="971.2505" y2="1218.3967">
					<stop  offset="0" style="stop-color:#DAE3FE"/>
					<stop  offset="1" style="stop-color:#E9EFFD"/>
				</linearGradient>
				<path style="fill:url(#SVGID_00000181052338882582680910000010855204962838102966_);" d="M800.155,1615.615
					c-0.424,0.076-0.859,0.112-1.306,0.105c-3.743-0.057-6.732-3.139-6.674-6.882c0.065-4.244,8.325-428.448,166.099-783.736
					c1.519-3.418,5.524-4.961,8.949-3.445c3.422,1.521,4.963,5.526,3.445,8.949c-156.627,352.701-164.87,774.224-164.936,778.44
					C805.681,1612.343,803.284,1615.054,800.155,1615.615z"/>
			</g>
		</g>
		<g>
			
				<linearGradient id="SVGID_00000044164642103299594570000008368980033102416273_" gradientUnits="userSpaceOnUse" x1="3823.0063" y1="4615.9648" x2="3563.4255" y2="4935.083" gradientTransform="matrix(-0.6935 0.7205 0.7205 0.6935 1850.1702 -3759.5798)">
				<stop  offset="0" style="stop-color:#E1473D"/>
				<stop  offset="1" style="stop-color:#E9605A"/>
			</linearGradient>
			<path style="fill:url(#SVGID_00000044164642103299594570000008368980033102416273_);" d="M2611.925,2230.305
				c-1.578-3.287,1.69-6.814,5.088-5.495c12.582,4.884,35.997,11.452,53.431,1.57c0.878-0.498,1.731-0.954,2.568-1.385
				c-1.502-2.159-3.816-3.902-7.45-4.127c-10.398-0.644-13.779-16.018-13.779-16.018s8.811,5.727,18.87,3.289
				c8.665-2.099,20.779,2.831,26.292,12.801c24.969,31.032,56.954,73.467,121.472,49.346
				c64.517-24.12,27.085-153.862,27.085-153.862l78.632,109.225c0,0-0.43,77.664-95.877,97.121
				c-95.447,19.456-142.238-75.6-142.238-75.6S2634.929,2278.218,2611.925,2230.305z"/>
			
				<linearGradient id="SVGID_00000009577727400494307270000009864259335030770837_" gradientUnits="userSpaceOnUse" x1="2996.1506" y1="2128.2288" x2="3462.6389" y2="3177.8269">
				<stop  offset="0" style="stop-color:#09005D"/>
				<stop  offset="1" style="stop-color:#1A0F91"/>
			</linearGradient>
			<path style="fill:url(#SVGID_00000009577727400494307270000009864259335030770837_);" d="M2959.057,1945.068
				c0,0-5.614,10.718,29.294,28.292c19.464,9.799,57.414,24.457,61.687,65.256c2.206,21.063,17.439,38.189,38.311,41.792
				c51.984,8.975,131.815,37.563,142.96,128.321c8.507,69.274-27.209,94.807-64.342,103.175
				c-27.274,6.148-45.816,32.213-40.84,59.725c4.77,26.389-3.658,56.631-49.656,79.804
				c-103.077,51.926-201.575-131.436-201.575-131.436l-14.906-317.195L2959.057,1945.068z"/>
			
				<linearGradient id="SVGID_00000092430508772392002320000016030362100175321781_" gradientUnits="userSpaceOnUse" x1="866.3471" y1="3311.4172" x2="1399.7316" y2="3287.6633" gradientTransform="matrix(0.9998 0.0189 -0.0189 0.9998 -1574.1307 -24.7392)">
				<stop  offset="0" style="stop-color:#4F52FF"/>
				<stop  offset="1" style="stop-color:#4042E2"/>
			</linearGradient>
			<path style="fill:url(#SVGID_00000092430508772392002320000016030362100175321781_);" d="M3175.71,3182.356l3.535,34.482
				c0.67,6.541,5.712,11.798,12.229,12.668c11.005,1.468,28.679,3.094,46.028,1.59c7.616-0.66,12.695-8.263,10.518-15.59
				c-3.97-13.361-11.317-33.443-22.229-45.385l-38.163-0.72C3180.573,3169.266,3174.991,3175.335,3175.71,3182.356z"/>
			
				<linearGradient id="SVGID_00000116212652895439513290000001327237847258641317_" gradientUnits="userSpaceOnUse" x1="478.3735" y1="3424.7473" x2="584.2721" y2="2187.0569" gradientTransform="matrix(0.9998 0.0189 -0.0189 0.9998 2445.3633 51.1579)">
				<stop  offset="0" style="stop-color:#FEBBBA"/>
				<stop  offset="1" style="stop-color:#FF928E"/>
			</linearGradient>
			<path style="fill:url(#SVGID_00000116212652895439513290000001327237847258641317_);" d="M2884.414,2773.71l-7.157,37.768
				c0,0,17.445,218.901,19.631,306.371c0.343,13.714-3.457,27.188-10.869,38.73l-38.658,60.201l96.387-54.45l2.117-11.597
				l-15.199-21.75l25.061-244.382c1.473-14.356-1.223-28.833-7.763-41.697l-19.018-37.415L2884.414,2773.71z"/>
			
				<linearGradient id="SVGID_00000065037626187697413480000006838011667471850902_" gradientUnits="userSpaceOnUse" x1="865.2212" y1="3286.167" x2="1398.6053" y2="3262.4131" gradientTransform="matrix(0.9998 0.0189 -0.0189 0.9998 -1574.1307 -24.7392)">
				<stop  offset="0" style="stop-color:#4F52FF"/>
				<stop  offset="1" style="stop-color:#4042E2"/>
			</linearGradient>
			<path style="fill:url(#SVGID_00000065037626187697413480000006838011667471850902_);" d="M2840.916,3225.486l30.42,0.574
				c5.695,0.108,11.114-2.405,14.672-6.852c9.715-12.144,29.818-35.813,39.225-36.264c12.663-0.606,10.197,44.326,10.197,44.326
				l7.089,0.134l10.035-55.702c2.525-14.015-4.203-28.073-16.702-34.898l0,0c0,0-3.294,21.327-19.15,30.488
				c-15.854,9.161-64.611,42.122-64.611,42.122s-5.878-0.953-12.37,0.096C2830.091,3211.063,2831.162,3225.301,2840.916,3225.486z"
				/>
			
				<linearGradient id="SVGID_00000174602450373708346070000013741051021912530861_" gradientUnits="userSpaceOnUse" x1="691.3964" y1="3443.1538" x2="797.3219" y2="2205.1482" gradientTransform="matrix(0.9998 0.0189 -0.0189 0.9998 2445.3633 51.1579)">
				<stop  offset="0" style="stop-color:#FEBBBA"/>
				<stop  offset="1" style="stop-color:#FF928E"/>
			</linearGradient>
			<path style="fill:url(#SVGID_00000174602450373708346070000013741051021912530861_);" d="M3014.638,2794.171
				c0,0,121.842,242.094,140.897,297.202c19.054,55.108,25.229,100.898,25.417,105.226c0.293,6.763,8.573,13.402,31.736,13.84
				c11.953,0.226,17.898-4.455,20.852-9.039c2.52-3.91,2.74-8.859,0.758-13.068c-7.03-14.931-29.335-62.645-37.521-84.251
				c-9.775-25.793-29.648-142.23-40.987-182.797c-11.34-40.568-24.192-84.584-76.126-125.884
				C3079.662,2795.399,3044.156,2759.286,3014.638,2794.171z"/>
			
				<linearGradient id="SVGID_00000064348009982803398130000018193044207263745938_" gradientUnits="userSpaceOnUse" x1="2620.5276" y1="2607.4697" x2="2909.7808" y2="2223.3052">
				<stop  offset="0" style="stop-color:#FF928E"/>
				<stop  offset="1" style="stop-color:#FE7062"/>
			</linearGradient>
			<path style="fill:url(#SVGID_00000064348009982803398130000018193044207263745938_);" d="M2940.837,2393.088
				c-21.395-111.252,30.593-181.158,49.164-201.964c3.425-3.837,3.085-9.751-0.759-13.169
				c-38.912-34.592-96.643-55.86-123.659-64.484c-9.469-3.022-19.781-1.069-27.535,5.149
				c-24.799,19.885-76.981,67.093-69.495,106.972c5.182,27.616,50.363,155.401,58.863,179.324c0.911,2.565,2.871,4.598,5.409,5.582
				c12.847,4.978,54.813,17.557,103.082-7.174C2939.652,2401.406,2941.632,2397.222,2940.837,2393.088z"/>
			
				<linearGradient id="SVGID_00000175318879898793230890000014375258057188646804_" gradientUnits="userSpaceOnUse" x1="3104.6899" y1="2297.2439" x2="2964.5833" y2="2586.4963">
				<stop  offset="0" style="stop-color:#4F52FF"/>
				<stop  offset="1" style="stop-color:#4042E2"/>
			</linearGradient>
			<path style="fill:url(#SVGID_00000175318879898793230890000014375258057188646804_);" d="M3013.208,2469.638
				c-12.513-40.215-70.982-69.748-70.982-69.748c-60.854,35.002-113.435,8.892-113.435,8.892s-12.757,45.255-5.342,87.675
				c7.414,42.42,53.808,315.02,53.808,315.02c80.873,17.983,206.355-12.659,206.355-12.659
				C3033.634,2706.034,3025.719,2509.853,3013.208,2469.638z"/>
			
				<linearGradient id="SVGID_00000170261347606350380790000000184097981832591240_" gradientUnits="userSpaceOnUse" x1="466.7415" y1="2204.7512" x2="486.6341" y2="2059.2219" gradientTransform="matrix(0.9998 0.0189 -0.0189 0.9998 2445.3633 51.1579)">
				<stop  offset="0" style="stop-color:#FEBBBA"/>
				<stop  offset="1" style="stop-color:#FF928E"/>
			</linearGradient>
			<path style="fill:url(#SVGID_00000170261347606350380790000000184097981832591240_);" d="M2911.569,2018.872l24.255,119.543
				c2.34,10.533-7.188,8.637-17.751,6.438c-17.299-3.6-39.548-10.764-46.772-24.414c-0.735-1.389-1.086-2.951-1.272-4.512
				l-9.827-82.762c-0.781-6.565,2.88-12.855,8.974-15.42l22.155-9.327C2899.863,2004.825,2909.563,2009.837,2911.569,2018.872z"/>
			<path style="fill:#91B3FA;" d="M3155.138,2271.328c1.602,0,3.403-0.717,4.87-1.629c24.207-15.138,37.569-47.045,32.492-77.592
				c-3.042-18.304-11.794-34.208-24.644-44.792c-9.115-7.503-19.999-12.175-30.368-16.321
				c-17.469-6.983-35.489-13.186-53.559-18.436c-1.477-0.427-2.959-0.854-4.441-1.281c-10.555-3.023-21.471-6.149-31.295-11.296
				c-12.565-6.595-21.633-15.997-25.534-26.479c-2.427-6.517-3.028-13.72-3.607-20.684c-0.714-8.573-1.452-17.44-5.606-25.11
				c-0.167-0.304-0.54-0.412-0.852-0.255c-0.304,0.167-0.417,0.55-0.253,0.854c4.029,7.439,4.755,16.169,5.459,24.614
				c0.586,7.047,1.192,14.339,3.68,21.022c4.009,10.766,13.289,20.409,26.128,27.146c9.939,5.211,20.917,8.357,31.533,11.399
				c1.479,0.422,2.962,0.844,4.438,1.276c18.029,5.241,36.009,11.429,53.441,18.397c10.276,4.107,21.062,8.735,30.034,16.125
				c12.616,10.388,21.211,26.022,24.202,44.027c4.998,30.061-8.129,61.447-31.918,76.316c-1.713,1.075-4.969,2.375-6.284,0.461
				c-0.201-0.29-0.591-0.358-0.874-0.167c-0.285,0.201-0.358,0.589-0.162,0.874
				C3152.777,2270.901,3153.899,2271.328,3155.138,2271.328z"/>
			<path style="fill:#91B3FA;" d="M3161.723,2242.832c0.199,0,0.392-0.093,0.515-0.27c9.481-13.613,14.555-27.995,14.672-41.593
				c0.14-15.953-6.988-30.925-18.6-39.071c-0.287-0.191-0.677-0.132-0.876,0.152c-0.198,0.285-0.13,0.677,0.155,0.878
				c11.279,7.91,18.203,22.485,18.065,38.031c-0.115,13.342-5.111,27.48-14.447,40.886c-0.199,0.285-0.128,0.677,0.157,0.874
				C3161.473,2242.798,3161.598,2242.832,3161.723,2242.832z"/>
		</g>
		<g>
			
				<linearGradient id="SVGID_00000015352878383811735940000012876401217421441171_" gradientUnits="userSpaceOnUse" x1="-5743.916" y1="3175.1917" x2="-5589.0449" y2="3175.1917" gradientTransform="matrix(1 0 0 1 6481.8125 0)">
				<stop  offset="0" style="stop-color:#4F52FF"/>
				<stop  offset="1" style="stop-color:#4042E2"/>
			</linearGradient>
			<path style="fill:url(#SVGID_00000015352878383811735940000012876401217421441171_);" d="M888.394,3167.701
				c-26.531,2.293-72.578,6.019-108.878,7.616c-21.822,0.96-34.384-1.176-41.62-4.073c0.012,0.816,0.035,1.587,0.067,2.302
				c0.172,3.82,3.276,6.876,7.134,7.091c68.593,3.829,123.144,1.325,142.565,0.143c4.016-0.245,6.409-4.609,4.355-8.032
				C890.99,3171.037,889.746,3169.359,888.394,3167.701z"/>
			
				<linearGradient id="SVGID_00000173863291989807150210000012583323475864400021_" gradientUnits="userSpaceOnUse" x1="-5743.9248" y1="3144.8389" x2="-5593.418" y2="3144.8389" gradientTransform="matrix(1 0 0 1 6481.8125 0)">
				<stop  offset="0" style="stop-color:#09005D"/>
				<stop  offset="1" style="stop-color:#1A0F91"/>
			</linearGradient>
			<path style="fill:url(#SVGID_00000173863291989807150210000012583323475864400021_);" d="M779.516,3175.317
				c36.301-1.598,82.347-5.323,108.878-7.616c-26.085-32.003-108.878-53.573-108.878-53.573h-23.384
				c-16.083,23.183-18.412,45.255-18.236,57.116C745.131,3174.141,757.694,3176.278,779.516,3175.317z"/>
			
				<linearGradient id="SVGID_00000114042635834800093220000003878203468142600603_" gradientUnits="userSpaceOnUse" x1="-5729.6177" y1="3102.4624" x2="-5685.9937" y2="3102.4624" gradientTransform="matrix(1 0 0 1 6481.8125 0)">
				<stop  offset="0" style="stop-color:#FEBBBA"/>
				<stop  offset="1" style="stop-color:#FF928E"/>
			</linearGradient>
			<path style="fill:url(#SVGID_00000114042635834800093220000003878203468142600603_);" d="M752.194,3075.953l2.188,43.302
				c0.237,4.689,3.747,8.629,8.443,9.301c4.672,0.668,10.93,0.754,17.565-1.455c4.082-1.359,7.113-4.798,7.866-8.994l7.561-42.154
				H752.194z"/>
			<g>
				
					<linearGradient id="SVGID_00000016046863433947012890000008942870325551036838_" gradientUnits="userSpaceOnUse" x1="-6020.3408" y1="3213.595" x2="-5960.9917" y2="3213.595" gradientTransform="matrix(1 0 0 1 6481.8125 0)">
					<stop  offset="0" style="stop-color:#4F52FF"/>
					<stop  offset="1" style="stop-color:#4042E2"/>
				</linearGradient>
				<path style="fill:url(#SVGID_00000016046863433947012890000008942870325551036838_);" d="M480.797,3217.654
					c-11.506-2.074-16.712-9.799-18.894-18.057c-0.014,0.075-0.029,0.148-0.043,0.222c-1.693,8.712,2.231,17.74,10.077,22.034
					c9.482,5.19,19.85,6.074,27.899,5.645c8.636-0.46,16.562-5.078,20.919-12.47l0.065-0.111
					C512.153,3220.46,499.985,3221.113,480.797,3217.654z"/>
				
					<linearGradient id="SVGID_00000110467072607960730160000007622553853148233856_" gradientUnits="userSpaceOnUse" x1="-6019.9092" y1="3154.5354" x2="-5932.7959" y2="3154.5354" gradientTransform="matrix(1 0 0 1 6481.8125 0)">
					<stop  offset="0" style="stop-color:#09005D"/>
					<stop  offset="1" style="stop-color:#1A0F91"/>
				</linearGradient>
				<path style="fill:url(#SVGID_00000110467072607960730160000007622553853148233856_);" d="M535.044,3089.295H515.76
					c-29.374-0.776-47.819,79.294-53.857,110.302c2.183,8.259,7.388,15.983,18.894,18.057c19.188,3.458,31.355,2.806,40.023-2.737
					c15.869-26.989,23.737-66.517,27.518-89.585C552.641,3099.094,535.044,3089.295,535.044,3089.295z"/>
			</g>
			
				<linearGradient id="SVGID_00000152944793168035126640000016006968360982980530_" gradientUnits="userSpaceOnUse" x1="-5974.6289" y1="3079.7141" x2="-5922.4937" y2="3079.7141" gradientTransform="matrix(1 0 0 1 6481.8125 0)">
				<stop  offset="0" style="stop-color:#FEBBBA"/>
				<stop  offset="1" style="stop-color:#FF928E"/>
			</linearGradient>
			<path style="fill:url(#SVGID_00000152944793168035126640000016006968360982980530_);" d="M518.238,3049.102l-10.708,42.59
				c-1.313,5.222,1.186,10.623,6.014,13.101c5.99,3.074,14.424,6.304,22.175,5.369c3.645-0.44,6.673-3.007,7.878-6.44l15.721-44.809
				L518.238,3049.102z"/>
			
				<linearGradient id="SVGID_00000023270971284743449650000015207933191990169753_" gradientUnits="userSpaceOnUse" x1="-5633.1787" y1="2648.5649" x2="-6078.2944" y2="3377.7073" gradientTransform="matrix(1 0 0 1 6481.8125 0)">
				<stop  offset="0" style="stop-color:#09005D"/>
				<stop  offset="1" style="stop-color:#1A0F91"/>
			</linearGradient>
			<path style="fill:url(#SVGID_00000023270971284743449650000015207933191990169753_);" d="M894.927,2488.17
				c0,0-95.693,598.164-94.117,601.452c0,0-26.43,12.013-55.242,1.531c0,0,8.653-319.761,28.93-442.366
				c0,0-163.316,285.804-215.179,428.214c0,0-27.05-3.225-49.441-17.961c0,0,175.846-514.434,222.759-582.954L894.927,2488.17z"/>
			
				<linearGradient id="SVGID_00000140715490218681435000000005766014124269477770_" gradientUnits="userSpaceOnUse" x1="776.8828" y1="2611.2576" x2="840.7339" y2="2611.2576">
				<stop  offset="0" style="stop-color:#4F52FF"/>
				<stop  offset="1" style="stop-color:#4042E2"/>
			</linearGradient>
			<polygon style="fill:url(#SVGID_00000140715490218681435000000005766014124269477770_);" points="779.756,2643.746 
				776.883,2641.945 813.031,2584.211 840.065,2578.769 840.734,2582.093 815.129,2587.243 			"/>
			
				<linearGradient id="SVGID_00000079464345728998980030000005322440898670437775_" gradientUnits="userSpaceOnUse" x1="616.9792" y1="2485.4634" x2="915.2704" y2="2132.938">
				<stop  offset="0" style="stop-color:#FF928E"/>
				<stop  offset="1" style="stop-color:#FE7062"/>
			</linearGradient>
			<path style="fill:url(#SVGID_00000079464345728998980030000005322440898670437775_);" d="M930.059,2074.458
				c-6.464-2.24-13.208-3.552-20.045-3.953c-37.335-2.189-135.955,12.544-241.679,30.363c-37.286,6.284-42.682,33.153-45.283,55.388
				c-5.881,50.267,25.295,62.888,68.128,69.054c25.792,69.644,37.892,171.262,40.42,216.233c0.833,14.806-1.765,29.585-7.574,43.255
				l-0.634,1.491c-1.243,2.925,0.468,6.287,3.595,6.99c69.68,15.652,142.152,11.399,163.804,9.611
				c3.865-0.319,7.077-3.085,7.964-6.821c33.883-142.77,33.961-240.158,25.665-301.723
				C1055.768,2270.135,1000.19,2098.76,930.059,2074.458z"/>
			
				<linearGradient id="SVGID_00000089559210084509024440000016689760109822756748_" gradientUnits="userSpaceOnUse" x1="898.2094" y1="2147.959" x2="924.6185" y2="2147.959">
				<stop  offset="0" style="stop-color:#53D8FF"/>
				<stop  offset="1" style="stop-color:#3840F7"/>
			</linearGradient>
			<path style="fill:url(#SVGID_00000089559210084509024440000016689760109822756748_);" d="M921.48,2190.227
				c-9.169-61.756-19.712-80.088-22.033-81.614c0.185,0.119,0.778,0.258,1.334-0.126c0.507-0.351,0.652-0.934,0.589-1.215
				l-3.098,0.688c-0.248-1.119,0.301-1.745,0.549-1.963l1.841-0.308c3.148,1.158,14.307,19.087,23.956,84.073L921.48,2190.227z"/>
			
				<linearGradient id="SVGID_00000033348848391773493710000016446736746400090807_" gradientUnits="userSpaceOnUse" x1="-5717.7827" y1="2155.1614" x2="-5695.1929" y2="2036.5653" gradientTransform="matrix(1 0 0 1 6481.8125 0)">
				<stop  offset="0" style="stop-color:#FEBBBA"/>
				<stop  offset="1" style="stop-color:#FF928E"/>
			</linearGradient>
			<path style="fill:url(#SVGID_00000033348848391773493710000016446736746400090807_);" d="M752.599,1987.336
				c0,0-7.049,74.531-13.256,96.578c-0.942,3.345,0.511,6.872,3.55,8.608c10.534,6.019,35.798,15.836,70.357-1.101
				c5.599-2.744,8.964-8.58,8.703-14.756l-3.045-72.022L752.599,1987.336z"/>
		</g>
		<g>
			<g>
				
					<linearGradient id="SVGID_00000021835564291492677440000001604986266202354070_" gradientUnits="userSpaceOnUse" x1="1826.8719" y1="1917.8026" x2="779.5139" y2="1902.5505">
					<stop  offset="0" style="stop-color:#4F52FF"/>
					<stop  offset="1" style="stop-color:#4042E2"/>
				</linearGradient>
				<path style="fill:url(#SVGID_00000021835564291492677440000001604986266202354070_);" d="M1804.68,2407.247
					c-54.23-11.933-121.999,0.987-184.017,17.581c-70.308,7.415-95.444-107.688-66.85-179.914
					c15.636-39.494,53.733-57.456,87.632-43.093c89.876,38.081,128.992,26.502,161.586,18.753
					c24.449-5.81,35.683-43.52,34.882-73.971l-16.03-609.43c-0.655-24.896,12.483-47.667,32.169-54.026
					c50.195-16.22,104.686,16.051,168.534,41.749c25.537,10.278,53.566,9.351,77.893-4.644
					c93.956-54.059,69.202-241.591-44.634-220.17c-64.477,18.878-135.41,31.821-200.463,18.812
					c-20.004-4.002-34.795-24.972-35.155-49.766l-8.193-565.49c-20.545,2.767-40.771,8.623-59.92,17.718l-859.735,408.319
					c-66.357,31.517-110.628,96.457-115.372,169.765c-80.642,1246.541,718.625,1700.732,980.635,1815.464
					c28.132,12.317,58.338,17.908,88.373,16.889l-6.546-672.901C1839.469,2433.713,1824.938,2411.706,1804.68,2407.247z"/>
				<path style="fill:#91B3FA;" d="M1839.213,3136.99c-28.696,0-57.459-5.982-83.61-17.432
					c-136.832-59.918-399.433-202.58-620.775-484.823c-124.402-158.633-218.717-340.444-280.324-540.385
					c-73.497-238.532-101.28-506.089-82.574-795.241c4.853-75.003,50.17-141.688,118.265-174.029l859.737-408.317
					c19.289-9.163,39.951-15.277,61.421-18.167l5.68-0.765l8.276,571.22c0.328,22.453,13.393,41.318,31.067,44.854
					c54.377,10.871,117.311,4.929,198.038-18.706l0.49-0.116c45.155-8.487,82.319,14.125,99.459,60.501
					c20.451,55.334,6.634,135.71-51.352,169.07c-25.121,14.456-54.357,16.217-82.326,4.955
					c-11.917-4.797-23.522-9.825-34.748-14.691c-48.975-21.229-91.266-39.571-130.327-26.935
					c-17.203,5.555-29.249,26.187-28.65,49.054l16.031,609.431c0.91,34.486-12.125,72.712-38.789,79.048l-3.466,0.831
					c-32.536,7.819-73.037,17.544-161.278-19.848c-14.016-5.938-29.444-5.982-43.46-0.113
					c-16.594,6.948-29.898,21.295-37.462,40.395c-19.08,48.194-13.178,115.616,13.155,150.294
					c12.88,16.968,29.041,24.628,48.048,22.731c55.95-14.946,127.557-30.398,186.032-17.528l0,0
					c22.47,4.945,38.779,28.753,38.779,56.608l6.597,677.813l-4.962,0.169C1843.864,3136.951,1841.537,3136.99,1839.213,3136.99z
					 M1807.034,709.52c-18.392,3.012-36.108,8.527-52.739,16.425l-859.737,408.321c-64.765,30.759-107.864,94.176-112.479,165.498
					c-18.627,287.914,9.01,554.246,82.144,791.593c61.239,198.746,154.975,379.452,278.606,537.102
					c219.968,280.493,480.894,422.25,616.852,481.785c25.376,11.109,53.447,16.713,81.2,16.571l-6.498-667.876
					c0-23.168-12.953-42.798-30.795-46.727l0,0c-57.112-12.556-130.999,3.985-181.613,17.528l-0.781,0.146
					c-22.632,2.383-42.543-6.836-57.601-26.661c-28.723-37.823-35.095-108.185-14.509-160.182
					c8.58-21.672,23.847-38.021,42.99-46.035c16.551-6.928,34.787-6.888,51.352,0.133c85.162,36.082,123.849,26.79,154.939,19.322
					l3.489-0.834c20.394-4.846,31.765-38.836,30.977-68.893l-16.031-609.43c-0.731-27.713,13.946-51.974,35.688-58.998
					c42.689-13.787,86.629,5.243,137.497,27.283c11.162,4.84,22.708,9.841,34.499,14.588c25.012,10.07,51.103,8.527,73.457-4.333
					c41.57-23.916,71.312-90.641,46.883-156.733c-21.927-59.326-68.499-57.651-87.797-54.079
					c-82.246,24.059-146.637,30.047-202.643,18.845c-22.344-4.469-38.846-27.465-39.243-54.678L1807.034,709.52z"/>
			</g>
			<g>
				
					<linearGradient id="SVGID_00000029732598581452898150000002404811838773630625_" gradientUnits="userSpaceOnUse" x1="2933.0808" y1="1931.9343" x2="1834.8799" y2="1916.6819">
					<stop  offset="0" style="stop-color:#4F52FF"/>
					<stop  offset="1" style="stop-color:#4042E2"/>
				</linearGradient>
				<path style="fill:url(#SVGID_00000029732598581452898150000002404811838773630625_);" d="M2901.234,1299.438
					c-4.742-73.308-49.013-138.249-115.37-169.765l-859.736-408.319c-35.909-17.054-75.571-22.91-114.095-17.718l8.193,565.49
					c0.359,24.794,15.151,45.764,35.155,49.766c65.053,13.009,135.986,0.066,200.463-18.812
					c113.835-21.421,138.589,166.111,44.634,220.17c-24.327,13.996-52.356,14.922-77.893,4.644
					c-63.848-25.697-118.339-57.969-168.534-41.749c-19.686,6.359-32.824,29.13-32.169,54.026l16.03,609.43
					c0.801,30.451-10.432,68.161-34.882,73.971c-32.594,7.749-71.71,19.328-161.586-18.753
					c-33.898-14.363-71.996,3.598-87.632,43.093c-28.594,72.226-3.458,187.329,66.85,179.914
					c62.019-16.594,129.788-29.514,184.017-17.581c20.259,4.459,34.789,26.465,34.789,51.643l6.546,672.901
					c25.441-0.864,50.757-6.455,74.588-16.889C2182.609,3000.17,2981.878,2545.979,2901.234,1299.438z"/>
				<path style="fill:#91B3FA;" d="M1840.98,3137.05l-6.597-678.111c0-23.168-12.953-42.798-30.795-46.727
					c-57.102-12.552-130.999,3.985-181.613,17.528l-0.781,0.146c-22.632,2.383-42.543-6.836-57.601-26.661
					c-28.723-37.823-35.095-108.185-14.509-160.182c8.58-21.672,23.847-38.021,42.99-46.035c16.561-6.925,34.797-6.885,51.352,0.133
					c85.162,36.082,123.849,26.79,154.939,19.322l3.489-0.834c20.398-4.846,31.765-38.832,30.977-68.893l-16.035-609.43
					c-0.728-27.713,13.949-51.974,35.691-58.998c42.689-13.787,86.629,5.243,137.497,27.283c11.162,4.84,22.708,9.845,34.499,14.588
					c25.012,10.07,51.103,8.527,73.457-4.333c41.566-23.916,71.312-90.641,46.883-156.733
					c-21.924-59.323-68.515-57.658-87.794-54.079c-82.253,24.059-146.647,30.047-202.646,18.845
					c-22.344-4.469-38.846-27.465-39.243-54.678l-8.259-569.999l4.472-0.602c40.11-5.402,80.555,0.874,116.957,18.167
					l859.734,408.317c68.095,32.341,113.412,99.026,118.265,174.029c18.706,289.152-9.077,556.708-82.574,795.241
					c-61.607,199.941-155.919,381.752-280.321,540.385c-221.342,282.24-483.943,424.905-620.775,484.823
					c-24.178,10.586-49.902,16.412-76.453,17.313L1840.98,3137.05z M1757.583,2397.478c16.624,0,32.854,1.427,48.19,4.803
					c22.47,4.945,38.779,28.753,38.779,56.608l6.495,667.575c23.417-1.397,46.105-6.846,67.516-16.22
					c135.958-59.535,396.884-201.292,616.849-481.785c123.631-157.65,217.37-338.355,278.606-537.102
					c73.133-237.347,100.77-503.679,82.143-791.593c-4.615-71.322-47.714-134.74-112.479-165.502l-859.734-408.317
					c-33.265-15.8-70.088-21.924-106.765-17.822l8.127,560.929c0.328,22.453,13.393,41.318,31.067,44.854
					c54.377,10.871,117.311,4.929,198.038-18.706l0.49-0.116c45.155-8.487,82.322,14.125,99.459,60.501
					c20.451,55.334,6.634,135.71-51.352,169.07c-25.121,14.456-54.357,16.217-82.326,4.955
					c-11.917-4.797-23.522-9.825-34.748-14.691c-48.975-21.229-91.266-39.571-130.327-26.935
					c-17.203,5.555-29.249,26.187-28.65,49.054l16.031,609.431c0.91,34.486-12.125,72.712-38.789,79.048l-3.466,0.831
					c-32.536,7.819-73.037,17.544-161.278-19.848c-14.016-5.938-29.444-5.982-43.46-0.113
					c-16.594,6.948-29.898,21.295-37.462,40.395c-19.08,48.194-13.178,115.616,13.155,150.294
					c12.883,16.968,29.054,24.655,48.048,22.731C1661.016,2408.779,1710.819,2397.478,1757.583,2397.478z"/>
			</g>
			<path style="fill:#91B3FA;" d="M1579.058,886.26c-1.903,0-3.727-1.069-4.595-2.903c-1.205-2.536-0.126-5.571,2.41-6.773
				l203.142-96.477c2.536-1.202,5.574-0.129,6.773,2.41c1.205,2.536,0.126,5.571-2.41,6.773l-203.142,96.477
				C1580.531,886.101,1579.79,886.26,1579.058,886.26z"/>
			<path style="fill:#91B3FA;" d="M842.756,1559.082c-2.728,0-4.985-2.165-5.078-4.912c-2.718-80.852-1.291-165.141,4.234-250.532
				c3.208-49.63,33.235-93.776,78.367-115.213l578.354-274.68c2.542-1.215,5.571-0.129,6.773,2.41
				c1.205,2.536,0.126,5.571-2.41,6.773l-578.354,274.68c-41.802,19.858-69.611,60.736-72.58,106.685
				c-5.505,85.06-6.925,169.014-4.221,249.532c0.096,2.807-2.105,5.161-4.909,5.253
				C842.872,1559.082,842.816,1559.082,842.756,1559.082z"/>
		</g>
		<g>
			
				<linearGradient id="SVGID_00000043455532066209105530000012232341582712370587_" gradientUnits="userSpaceOnUse" x1="2769.2385" y1="2388.1931" x2="3173.7397" y2="2056.0054">
				<stop  offset="0" style="stop-color:#FF928E"/>
				<stop  offset="1" style="stop-color:#FE7062"/>
			</linearGradient>
			<path style="fill:url(#SVGID_00000043455532066209105530000012232341582712370587_);" d="M2993.764,2182.142
				c0,0,19.108,86.538-92.208,176.766c-53.174,43.1-162.313,38.388-170.693-16.676l21.205-19.324c0,0,79.754,23.639,104.294-0.217
				c24.539-23.855,52.649-78.66,52.649-78.66S2964.436,2174.532,2993.764,2182.142z"/>
			
				<linearGradient id="SVGID_00000018230076256970294310000008686206084069291909_" gradientUnits="userSpaceOnUse" x1="367.2002" y1="1690.4843" x2="452.4129" y2="1690.4843" gradientTransform="matrix(-0.8054 -0.5927 -0.5927 0.8054 4057.7644 1177.5986)">
				<stop  offset="0" style="stop-color:#FEBBBA"/>
				<stop  offset="1" style="stop-color:#FF928E"/>
			</linearGradient>
			<path style="fill:url(#SVGID_00000018230076256970294310000008686206084069291909_);" d="M2732.659,2348.319
				c0,0,28.889-24.227,33.697-36.827c4.809-12.598,9.105-30.186-11.791-40.95c-20.896-10.764-48.742-19.116-48.742-19.116
				s-8.92,14.457,8.525,20.512l-13.827,0.334c0,0-6.774,11.846,9.519,14.843l-14.847,3.012c0,0-1.444,12.76,11.617,13.506
				C2719.872,2304.377,2705.005,2333.448,2732.659,2348.319z"/>
		</g>
		<g>
			
				<linearGradient id="SVGID_00000093895964003919181180000015676040041470627756_" gradientUnits="userSpaceOnUse" x1="234.3023" y1="2216.1814" x2="407.8725" y2="1907.2849" gradientTransform="matrix(0.9844 -0.1757 0.1757 0.9844 2218.2031 -52.0454)">
				<stop  offset="0" style="stop-color:#FEBBBA"/>
				<stop  offset="1" style="stop-color:#FF928E"/>
			</linearGradient>
			<path style="fill:url(#SVGID_00000093895964003919181180000015676040041470627756_);" d="M2862.857,1909.394
				c0,0-28.576,18.567-41.618,66.975c-13.041,48.409,6.331,66.228,26.547,65.54c20.216-0.688,49.617-6.38,75.647-40.795
				C2949.465,1966.701,2900.271,1886.754,2862.857,1909.394z"/>
			
				<linearGradient id="SVGID_00000147916190043779769430000014683829418844414650_" gradientUnits="userSpaceOnUse" x1="3051.3772" y1="2280.759" x2="3517.8652" y2="3330.3569">
				<stop  offset="0" style="stop-color:#09005D"/>
				<stop  offset="1" style="stop-color:#1A0F91"/>
			</linearGradient>
			<path style="fill:url(#SVGID_00000147916190043779769430000014683829418844414650_);" d="M2898.219,1981.014
				c0,0,11.654-69.498-46.412-59.93l-11.929,11.96c0,0-27.72-32.431,4.078-55.95c31.798-23.519,75.175-16.523,98.411,27.825
				c23.234,44.349,31.385,75.358,10.701,102.252c-20.685,26.894-35.415,3.215-35.415,3.215s22.612-27.943,10.375-40.18
				c-8.988-8.988-25.851,12.032-25.851,12.032L2898.219,1981.014z"/>
		</g>
		<g>
			
				<linearGradient id="SVGID_00000159451956231105208070000017317418936700473503_" gradientUnits="userSpaceOnUse" x1="684.1628" y1="2391.5576" x2="824.2695" y2="1939.5992">
				<stop  offset="0" style="stop-color:#FF928E"/>
				<stop  offset="1" style="stop-color:#FE7062"/>
			</linearGradient>
			<path style="fill:url(#SVGID_00000159451956231105208070000017317418936700473503_);" d="M833.32,2348.963
				c-11.887-1.981-22.529-7.927-29.517-14.701c-33.224-32.21-67.313-112.522-67.313-112.522s-50.663-122.932-102.507-102.99
				c0,0-55.599,96.718,83.997,244.344c12.217,12.919,55.236,40.177,73.142,46.552
				C809.509,2391.033,823.719,2372.109,833.32,2348.963z"/>
			
				<linearGradient id="SVGID_00000173864647345582547450000016308308004769732233_" gradientUnits="userSpaceOnUse" x1="1208.6787" y1="2352.9807" x2="1121.4624" y2="2466.4468" gradientTransform="matrix(0.995 -0.1003 0.1003 0.995 -537.4866 159.7308)">
				<stop  offset="0" style="stop-color:#FEBBBA"/>
				<stop  offset="1" style="stop-color:#FF928E"/>
			</linearGradient>
			<path style="fill:url(#SVGID_00000173864647345582547450000016308308004769732233_);" d="M970.517,2358.294
				c-33.286,6.06-90.393,13.777-142.032-10.653c-3.568,15.916-8.616,26.72-38.857,61.466
				c49.725,11.453,125.942,13.586,201.457-23.944L970.517,2358.294z"/>
			
				<linearGradient id="SVGID_00000158029487639157590910000007767793177024414856_" gradientUnits="userSpaceOnUse" x1="5325.7637" y1="4636.1992" x2="5399.6982" y2="4636.1992" gradientTransform="matrix(0.8046 -0.5938 0.5938 0.8046 -6069.1221 1804.4128)">
				<stop  offset="0" style="stop-color:#FEBBBA"/>
				<stop  offset="1" style="stop-color:#FF928E"/>
			</linearGradient>
			<path style="fill:url(#SVGID_00000158029487639157590910000007767793177024414856_);" d="M1001.839,2388.674
				c-4.054,4.706-11.175,5.187-15.772,1.009c-7.751-7.045-19.675-18.679-22.446-25.908c-4.188-10.926-7.937-26.18,10.181-35.545
				c18.117-9.365,42.269-16.645,42.269-16.645s7.757,12.533-7.372,17.807l11.998,0.273c0,0,5.892,10.27-8.241,12.89l12.886,2.595
				c0,0,1.268,11.069-10.064,11.732C1005.762,2357.439,1013.358,2375.302,1001.839,2388.674z"/>
		</g>
		<g>
			
				<linearGradient id="SVGID_00000096755536758543332130000007066035068280490906_" gradientUnits="userSpaceOnUse" x1="-5699.7759" y1="1970.5671" x2="-5828.6641" y2="2069.1863" gradientTransform="matrix(1 0 0 1 6481.8125 0)">
				<stop  offset="0" style="stop-color:#FEBBBA"/>
				<stop  offset="1" style="stop-color:#FF928E"/>
			</linearGradient>
			<path style="fill:url(#SVGID_00000096755536758543332130000007066035068280490906_);" d="M820.428,1891.987
				c0,0,22.546,51.792,24.06,78.976c1.514,27.184,7.372,44.823-24.06,50.297c-31.432,5.474-57.91-10.184-72.255-37.262
				c0,0-22.476-41.724-17.434-58.812C735.781,1908.098,820.428,1891.987,820.428,1891.987z"/>
			
				<linearGradient id="SVGID_00000109728854775991501660000016262384871402379961_" gradientUnits="userSpaceOnUse" x1="-5747.3896" y1="1859.4904" x2="-5627.3506" y2="2014.0404" gradientTransform="matrix(1 0 0 1 6481.8125 0)">
				<stop  offset="0" style="stop-color:#09005D"/>
				<stop  offset="1" style="stop-color:#1A0F91"/>
			</linearGradient>
			<path style="fill:url(#SVGID_00000109728854775991501660000016262384871402379961_);" d="M758.914,1964.529l1.789-0.789
				c2.278-1.004,3.252-3.715,2.108-5.927c-4.432-8.564-13.073-28.188-1.911-32.766c14.386-5.9,71.369-17.52,83.663-37.74
				c11.816-19.433,1.347-44.517-14.388-51.652c-1.053-0.478-2.295-0.099-2.835,0.924l-1.311,2.481
				c-0.898,1.698-3.406,1.441-3.94-0.404v0c-0.513-1.771-2.869-2.115-3.846-0.551c-3.779,6.049-13.982,15.856-41.267,20.892
				c-38.776,7.156-64.413,22.848-65.052,49.643c-0.04,1.702-1.851,2.649-3.306,1.763c-2.863-1.745-7.445-2.563-13.568,2.585
				c-10.649,8.954-6.292,32.182,17.054,51.289c1.109,0.908,1.1,2.639-0.101,3.421c-4.232,2.755-10.541,9.311,5.806,18.049
				c16.909,9.039,29.536,8.297,34.397,7.495c1.21-0.2,1.989-1.371,1.725-2.568l-5.189-23.551c-0.294-1.333,0.721-2.595,2.086-2.595
				H758.914z"/>
			
				<linearGradient id="SVGID_00000173870061024509243050000017212960274973047717_" gradientUnits="userSpaceOnUse" x1="-5672.6445" y1="1916.681" x2="-5801.5332" y2="2015.3005" gradientTransform="matrix(1 0 0 1 6481.8125 0)">
				<stop  offset="0" style="stop-color:#FEBBBA"/>
				<stop  offset="1" style="stop-color:#FF928E"/>
			</linearGradient>
			<path style="fill:url(#SVGID_00000173870061024509243050000017212960274973047717_);" d="M759.89,1969.498
				c0,0-8.601-33.084-23.434-23.807c-14.833,9.276,7.697,37.069,19.622,38.307L759.89,1969.498z"/>
		</g>
		<g>
			<path style="fill:#91B3FA;" d="M2057.856,3129.806c-2.557-0.432-4.813-1.858-6.29-3.989
				c-21.532-31.046-177.565-273.609,47.135-483.584c213.311-199.331,308.369-238.619,324.702-359.221
				c1.907-14.084,21.119-16.865,26.997-3.925c43.927,96.707,110.006,321.207-136.846,459.277
				c-272.305,152.306-256.049,329.331-244.732,379.852C2070.317,3124.894,2064.604,3130.945,2057.856,3129.806L2057.856,3129.806z"
				/>
			<path style="fill:#91B3FA;" d="M2090.845,3135.376c-6.052-1.022-10.719-5.864-11.462-11.957
				c-5.058-41.473-15.787-196.187,99.131-233.448c126.508-41.018,223.754,78.69,318.604-9.537
				c4.991-4.643,12.991-0.202,11.622,6.476c-9.711,47.361-49.682,156.502-212.548,173.511
				c-174.323,18.205-194.492,37.491-191.777,62.303C2105.252,3130.373,2098.433,3136.657,2090.845,3135.376L2090.845,3135.376z"/>
			<path style="fill:#BDD0FB;" d="M2412.808,2406.023c0,0-0.849,3.363-2.943,9.279c-2.051,5.968-5.543,14.519-10.7,25.075
				c-5.306,10.464-12.205,23.006-21.56,36.462c-9.199,13.559-20.79,28.044-34.675,42.712
				c-13.903,14.638-30.266,29.299-48.811,43.142c-9.208,7.021-19.19,13.492-29.425,20.02c-5.225,3.085-10.421,6.366-15.846,9.348
				c-2.708,1.503-5.429,3.016-8.16,4.532c-2.689,1.463-5.389,2.929-8.102,4.403c-21.161,11.688-42.227,25.807-62.078,41.898
				c-19.924,16.054-38.655,34.214-55.827,53.718c-17.091,19.577-32.414,40.699-45.377,62.739
				c-12.941,22.046-23.615,44.953-31.576,67.966c-7.969,23.006-13.347,46.039-16.437,68.171c-3.14,22.142-3.708,43.371-3.062,62.911
				c1.495,39.163,8.984,71.342,15.358,93.342c3.17,11.033,6.03,19.606,8.07,25.419c2.085,5.8,3.198,8.891,3.198,8.891l0.023,0.066
				c0.505,1.4-0.223,2.946-1.625,3.452c-1.364,0.49-2.865-0.192-3.411-1.516c0,0-1.263-3.078-3.63-8.848
				c-2.324-5.79-5.604-14.343-9.317-25.406c-7.236-22.126-15.942-54.658-18.809-94.855c-1.415-20.057-1.193-41.98,1.471-64.94
				c2.615-22.96,7.678-46.956,15.598-70.935c7.883-23.979,18.463-47.975,31.627-70.985c13.211-22.983,28.867-45.016,46.36-65.46
				c17.52-20.424,36.916-39.223,57.484-55.91c20.56-16.753,42.169-31.354,64.383-43.705c5.41-2.946,10.776-5.866,16.091-8.756
				c5.27-2.84,10.305-5.968,15.383-8.901c9.946-6.2,19.577-12.44,28.585-19.021c18.264-12.854,34.155-26.813,48.227-40.286
				c6.91-6.862,13.448-13.549,19.26-20.272c5.927-6.627,11.324-13.119,16.144-19.418c9.688-12.566,17.374-24.118,23.203-33.933
				c5.854-9.802,9.896-17.832,12.506-23.35c2.617-5.555,3.689-8.531,3.689-8.531c0.462-1.281,1.877-1.947,3.16-1.486
				c1.202,0.434,1.862,1.705,1.561,2.916L2412.808,2406.023z"/>
			<path style="fill:#BDD0FB;" d="M2085.007,3107.14c0,0,0.194-0.553,0.31-1.586c0.106-1.036,0.023-2.562,0.045-4.558
				c0.003-3.986,0.104-9.828,0.473-17.25c0.801-14.827,2.544-36.082,8.092-61.044c2.804-12.459,6.596-25.843,12.16-39.471
				c5.548-13.602,12.983-27.508,23.431-39.961c10.353-12.424,24.158-23.185,40.378-29.074c16.152-6.104,34.044-7.216,51.163-5.147
				c16.987,2.436,33.503,5.594,49.941,8.696c16.382,3.148,32.452,6.465,47.984,9.663c15.533,3.194,30.533,6.24,44.799,8.65
				c14.259,2.34,27.813,4.118,40.282,4.237c12.469,0.235,23.797-1.268,33.369-4.144c9.545-2.986,17.253-7.273,23.154-11.404
				c5.938-4.111,10.134-8.017,12.958-10.689c2.761-2.758,4.232-4.227,4.232-4.227l0.08-0.079c0.859-0.857,2.251-0.857,3.108,0
				c0.847,0.851,0.854,2.221,0.025,3.082c0,0-1.495,1.546-4.298,4.442c-2.878,2.817-7.162,6.951-13.332,11.381
				c-6.122,4.449-14.234,9.149-24.343,12.503c-10.115,3.271-22.111,5.012-35.017,4.76c-12.928-0.073-26.734-1.837-41.161-4.144
				c-14.421-2.377-29.491-5.373-45.046-8.504c-15.553-3.135-31.603-6.382-47.947-9.454c-16.294-3.042-33.066-6.048-49.562-8.504
				c-16.364-2.148-33.227-1.245-48.404,4.31c-15.242,5.356-28.324,15.287-38.351,27.058c-10.118,11.778-17.452,25.184-23.086,38.372
				c-5.629,13.228-9.557,26.336-12.501,38.581c-5.834,24.545-7.88,45.612-8.886,60.299c-0.475,7.359-0.659,13.148-0.72,17.094
				c-0.015,1.97-0.089,3.482,0.042,4.495c0.139,1.016,0.359,1.523,0.359,1.523c0.445,1.02-0.02,2.205-1.038,2.651
				c-1.02,0.444-2.206-0.023-2.651-1.039c-0.21-0.483-0.217-1.003-0.058-1.463L2085.007,3107.14z"/>
		</g>
		<g>
			<g>
				
					<linearGradient id="SVGID_00000170985346754726024190000003749065944754802077_" gradientUnits="userSpaceOnUse" x1="1526.9913" y1="2237.2791" x2="1708.2933" y2="2026.8394">
					<stop  offset="0" style="stop-color:#E1473D"/>
					<stop  offset="1" style="stop-color:#E9605A"/>
				</linearGradient>
				
					<circle style="fill:url(#SVGID_00000170985346754726024190000003749065944754802077_);" cx="1711.955" cy="2022.589" r="135.167"/>
				
					<linearGradient id="SVGID_00000097477561919770216020000009952637619188738736_" gradientUnits="userSpaceOnUse" x1="1810.7406" y1="1873.3523" x2="1274.626" y2="2683.2688">
					<stop  offset="0" style="stop-color:#FF928E"/>
					<stop  offset="1" style="stop-color:#FE7062"/>
				</linearGradient>
				
					<circle style="fill:url(#SVGID_00000097477561919770216020000009952637619188738736_);" cx="1711.955" cy="2022.589" r="130.673"/>
				<path style="opacity:0.69;fill:#FFFFFF;" d="M1604.196,1975.085c-1.026,0-2.069-0.232-3.049-0.728
					c-3.343-1.685-4.684-5.763-2.996-9.106c21.814-43.218,65.42-70.068,113.802-70.068c7.719,0,15.452,0.695,22.98,2.069
					c3.681,0.672,6.124,4.204,5.452,7.888c-0.672,3.681-4.188,6.111-7.888,5.452c-6.726-1.228-13.638-1.85-20.543-1.85
					c-43.235,0-82.203,23.996-101.7,62.62C1609.062,1973.725,1606.676,1975.085,1604.196,1975.085z"/>
				
					<ellipse transform="matrix(0.7071 -0.7071 0.7071 0.7071 -929.9455 1805.7849)" style="opacity:0.78;fill:#FFFFFF;" cx="1714.802" cy="2025.436" rx="110.599" ry="110.599"/>
				<g>
					
						<linearGradient id="SVGID_00000108292348149122226730000009040031889603937671_" gradientUnits="userSpaceOnUse" x1="1794.7478" y1="1896.5592" x2="1509.2783" y2="2375.8152">
						<stop  offset="0" style="stop-color:#FF928E"/>
						<stop  offset="1" style="stop-color:#FE7062"/>
					</linearGradient>
					<path style="fill:url(#SVGID_00000108292348149122226730000009040031889603937671_);" d="M1703.949,2107.656v-12.032
						c-12.544-0.502-24.951-3.463-33.762-7.321c-3.147-1.377-4.75-4.909-3.847-8.222l3.057-11.208
						c1.121-4.112,5.593-6.238,9.523-4.591c8.742,3.665,19.534,6.564,31.173,6.564c12.082,0,21.091-4.096,21.091-12.492
						c0-7.576-6.962-12.08-23.754-16.585c-23.958-6.553-41.16-16.997-41.16-38.089c0-19.045,13.925-33.583,38.088-37.473v-12.034
						c0-3.872,3.139-7.011,7.011-7.011h7.07c3.872,0,7.011,3.139,7.011,7.011v10.804c11.607,0.465,20.056,2.45,26.761,4.805
						c3.436,1.207,5.313,4.908,4.36,8.422l-2.811,10.366c-1.084,3.997-5.356,6.187-9.229,4.722
						c-6.173-2.334-14.902-4.765-26.247-4.765c-14.335,0-18.429,5.938-18.429,11.263c0,6.553,8.6,11.057,27.234,16.792
						c26.621,7.986,37.678,19.043,37.678,38.906c0,18.225-13.515,34.607-39.726,38.703v13.466c0,3.872-3.138,7.011-7.011,7.011
						h-7.07C1707.088,2114.667,1703.949,2111.528,1703.949,2107.656z"/>
				</g>
			</g>
			<g>
				
					<linearGradient id="SVGID_00000007410496995186501880000011358466839626653319_" gradientUnits="userSpaceOnUse" x1="1178.8245" y1="1985.7175" x2="1494.4397" y2="1619.379">
					<stop  offset="0" style="stop-color:#E1473D"/>
					<stop  offset="1" style="stop-color:#E9605A"/>
				</linearGradient>
				
					<circle style="fill:url(#SVGID_00000007410496995186501880000011358466839626653319_);" cx="1500.815" cy="1611.979" r="235.303"/>
				
					<linearGradient id="SVGID_00000019664937514422683010000010736094135229186192_" gradientUnits="userSpaceOnUse" x1="1672.7831" y1="1352.1844" x2="739.4998" y2="2762.1094">
					<stop  offset="0" style="stop-color:#FF928E"/>
					<stop  offset="1" style="stop-color:#FE7062"/>
				</linearGradient>
				
					<circle style="fill:url(#SVGID_00000019664937514422683010000010736094135229186192_);" cx="1500.815" cy="1611.979" r="227.479"/>
				<path style="opacity:0.69;fill:#FFFFFF;" d="M1313.233,1524.265c-1.026,0-2.069-0.232-3.049-0.728
					c-3.343-1.685-4.684-5.763-2.996-9.106c37.114-73.537,111.307-119.218,193.625-119.218c13.132,0,26.286,1.182,39.097,3.516
					c3.684,0.672,6.127,4.201,5.455,7.885c-0.669,3.681-4.181,6.111-7.885,5.455c-12.01-2.188-24.347-3.297-36.667-3.297
					c-77.172,0-146.726,42.828-181.523,111.77C1318.099,1522.904,1315.713,1524.265,1313.233,1524.265z"/>
				
					<ellipse transform="matrix(0.7071 -0.7071 0.7071 0.7071 -702.3159 1538.3306)" style="opacity:0.78;fill:#FFFFFF;" cx="1505.771" cy="1616.936" rx="192.533" ry="192.533"/>
				<g>
					
						<linearGradient id="SVGID_00000070823317308143698310000013531970497140048514_" gradientUnits="userSpaceOnUse" x1="1644.9423" y1="1392.5833" x2="1147.9883" y2="2226.8867">
						<stop  offset="0" style="stop-color:#FF928E"/>
						<stop  offset="1" style="stop-color:#FE7062"/>
					</linearGradient>
					<path style="fill:url(#SVGID_00000070823317308143698310000013531970497140048514_);" d="M1486.877,1760.067v-20.947
						c-21.836-0.874-43.434-6.028-58.775-12.743c-5.478-2.397-8.27-8.545-6.696-14.314l5.321-19.511
						c1.952-7.157,9.736-10.86,16.578-7.991c15.217,6.379,34.006,11.426,54.266,11.426c21.032,0,36.717-7.131,36.717-21.746
						c0-13.189-12.12-21.031-41.351-28.872c-41.707-11.407-71.652-29.589-71.652-66.305c0-33.154,24.241-58.463,66.305-65.235
						v-20.949c0-6.741,5.465-12.205,12.205-12.205h12.307c6.741,0,12.205,5.464,12.205,12.205v18.808
						c20.206,0.809,34.914,4.264,46.586,8.365c5.981,2.101,9.248,8.543,7.589,14.661l-4.894,18.045
						c-1.887,6.958-9.323,10.77-16.068,8.22c-10.747-4.064-25.941-8.295-45.691-8.295c-24.954,0-32.082,10.337-32.082,19.606
						c0,11.407,14.971,19.249,47.41,29.231c46.343,13.902,65.592,33.151,65.592,67.73c0,31.727-23.527,60.244-69.156,67.375v23.442
						c0,6.741-5.464,12.205-12.205,12.205h-12.308C1492.342,1772.272,1486.877,1766.808,1486.877,1760.067z"/>
				</g>
			</g>
			<g>
				
					<linearGradient id="SVGID_00000018916712827295415350000005097221890934373560_" gradientUnits="userSpaceOnUse" x1="1755.5111" y1="2587.4539" x2="2080.2754" y2="2210.4958">
					<stop  offset="0" style="stop-color:#E1473D"/>
					<stop  offset="1" style="stop-color:#E9605A"/>
				</linearGradient>
				
					<circle style="fill:url(#SVGID_00000018916712827295415350000005097221890934373560_);" cx="2086.835" cy="2202.881" r="242.124"/>
				
					<linearGradient id="SVGID_00000105423355936394875560000016849608950425789832_" gradientUnits="userSpaceOnUse" x1="2263.7883" y1="1935.5559" x2="1303.4518" y2="3386.3506">
					<stop  offset="0" style="stop-color:#FF928E"/>
					<stop  offset="1" style="stop-color:#FE7062"/>
				</linearGradient>
				
					<circle style="fill:url(#SVGID_00000105423355936394875560000016849608950425789832_);" cx="2086.835" cy="2202.881" r="234.073"/>
				<path style="opacity:0.69;fill:#FFFFFF;" d="M1893.815,2112.427c-1.026,0-2.069-0.232-3.049-0.728
					c-3.343-1.685-4.684-5.763-2.996-9.106c38.16-75.599,114.438-122.565,199.064-122.565c13.506,0,27.031,1.215,40.196,3.615
					c3.684,0.672,6.127,4.201,5.455,7.885c-0.672,3.684-4.2,6.114-7.885,5.455c-12.367-2.254-25.075-3.396-37.767-3.396
					c-79.479,0-151.119,44.109-186.962,115.117C1898.681,2111.066,1896.295,2112.427,1893.815,2112.427z"/>
				
					<ellipse transform="matrix(0.7071 -0.7071 0.7071 0.7071 -948.5652 2125.9246)" style="opacity:0.78;fill:#FFFFFF;" cx="2091.935" cy="2207.982" rx="198.114" ry="198.114"/>
				<g>
					
						<linearGradient id="SVGID_00000003799168603444507850000005346069238746327226_" gradientUnits="userSpaceOnUse" x1="2235.1404" y1="1977.1257" x2="1723.7809" y2="2835.6138">
						<stop  offset="0" style="stop-color:#FF928E"/>
						<stop  offset="1" style="stop-color:#FE7062"/>
					</linearGradient>
					<path style="fill:url(#SVGID_00000003799168603444507850000005346069238746327226_);" d="M2072.494,2355.262v-21.554
						c-22.469-0.9-44.693-6.202-60.478-13.112c-5.637-2.467-8.51-8.793-6.891-14.729l5.476-20.077
						c2.008-7.365,10.019-11.175,17.059-8.223c15.659,6.564,34.992,11.758,55.839,11.758c21.641,0,37.781-7.337,37.781-22.377
						c0-13.571-12.47-21.64-42.549-29.709c-42.916-11.738-73.729-30.446-73.729-68.228c0-34.115,24.945-60.158,68.228-67.126
						v-21.556c0-6.936,5.623-12.558,12.558-12.558h12.664c6.936,0,12.559,5.623,12.559,12.558v19.354
						c20.792,0.832,35.926,4.388,47.937,8.608c6.154,2.162,9.517,8.791,7.809,15.086l-5.035,18.568
						c-1.941,7.16-9.594,11.082-16.533,8.458c-11.058-4.182-26.693-8.536-47.015-8.536c-25.677,0-33.012,10.637-33.012,20.174
						c0,11.738,15.406,19.807,48.785,30.079c47.685,14.306,67.492,34.113,67.492,69.693c0,32.646-24.208,61.991-71.16,69.329v24.121
						c0,6.936-5.623,12.559-12.558,12.559h-12.666C2078.117,2367.821,2072.494,2362.198,2072.494,2355.262z"/>
				</g>
			</g>
			<g>
				
					<linearGradient id="SVGID_00000008830568470088372530000014368097123772175786_" gradientUnits="userSpaceOnUse" x1="1778.0144" y1="2022.0797" x2="2015.9668" y2="1745.8854">
					<stop  offset="0" style="stop-color:#E1473D"/>
					<stop  offset="1" style="stop-color:#E9605A"/>
				</linearGradient>
				
					<circle style="fill:url(#SVGID_00000008830568470088372530000014368097123772175786_);" cx="2020.773" cy="1740.306" r="177.402"/>
				
					<linearGradient id="SVGID_00000079448937700997249530000014651757901502098360_" gradientUnits="userSpaceOnUse" x1="2150.425" y1="1544.4393" x2="1446.7939" y2="2607.4253">
					<stop  offset="0" style="stop-color:#FF928E"/>
					<stop  offset="1" style="stop-color:#FE7062"/>
				</linearGradient>
				
					<circle style="fill:url(#SVGID_00000079448937700997249530000014651757901502098360_);" cx="2020.773" cy="1740.307" r="171.503"/>
				<path style="opacity:0.69;fill:#FFFFFF;" d="M1879.346,1675.844c-1.026,0-2.069-0.232-3.049-0.728
					c-3.343-1.685-4.684-5.763-2.996-9.106c28.269-56.006,84.775-90.8,147.471-90.8c9.994,0,20.014,0.904,29.776,2.681
					c3.684,0.672,6.127,4.201,5.455,7.885c-0.672,3.688-4.201,6.107-7.885,5.455c-8.964-1.635-18.163-2.463-27.346-2.463
					c-57.548,0-109.417,31.937-135.369,83.352C1884.212,1674.483,1881.825,1675.844,1879.346,1675.844z"/>
				
					<ellipse transform="matrix(0.7071 -0.7071 0.7071 0.7071 -640.2598 1942.3632)" style="opacity:0.78;fill:#FFFFFF;" cx="2024.51" cy="1744.043" rx="145.156" ry="145.156"/>
				<g>
					
						<linearGradient id="SVGID_00000070111781338513265560000011472945826023884962_" gradientUnits="userSpaceOnUse" x1="2129.4353" y1="1574.897" x2="1754.7661" y2="2203.9048">
						<stop  offset="0" style="stop-color:#FF928E"/>
						<stop  offset="1" style="stop-color:#FE7062"/>
					</linearGradient>
					<path style="fill:url(#SVGID_00000070111781338513265560000011472945826023884962_);" d="M2010.265,1851.955v-15.792
						c-16.463-0.659-32.746-4.544-44.312-9.607c-4.13-1.808-6.235-6.443-5.049-10.792l4.012-14.71
						c1.472-5.396,7.341-8.187,12.499-6.025c11.473,4.809,25.638,8.615,40.913,8.615c15.856,0,27.682-5.376,27.682-16.396
						c0-9.943-9.137-15.856-31.176-21.768c-31.444-8.601-54.021-22.308-54.021-49.99c0-24.996,18.276-44.077,49.99-49.182v-15.794
						c0-5.082,4.119-9.202,9.201-9.202h9.278c5.082,0,9.202,4.12,9.202,9.202v14.18c15.234,0.61,26.322,3.215,35.123,6.307
						c4.509,1.584,6.972,6.441,5.721,11.054l-3.689,13.605c-1.423,5.246-7.03,8.12-12.114,6.197
						c-8.103-3.064-19.558-6.254-34.448-6.254c-18.814,0-24.188,7.793-24.188,14.781c0,8.6,11.287,14.512,35.745,22.038
						c34.939,10.481,49.451,24.994,49.451,51.064c0,23.92-17.737,45.421-52.138,50.797v17.674c0,5.082-4.119,9.201-9.201,9.201
						h-9.28C2014.385,1861.156,2010.265,1857.036,2010.265,1851.955z"/>
				</g>
			</g>
		</g>
	</g>
</g>
</svg>
